G04 #@! TF.FileFunction,Copper,L2,Bot,Signal*
%FSLAX46Y46*%
G04 Gerber Fmt 4.6, Leading zero omitted, Abs format (unit mm)*
G04 Created by KiCad (PCBNEW 4.0.6-e0-6349~53~ubuntu16.04.1) date Tue Apr 25 15:56:05 2017*
%MOMM*%
%LPD*%
G01*
G04 APERTURE LIST*
%ADD10C,0.100000*%
%ADD11C,3.000000*%
%ADD12R,1.600000X1.600000*%
%ADD13C,1.600000*%
%ADD14R,1.700000X1.700000*%
%ADD15O,1.700000X1.700000*%
%ADD16C,3.650000*%
%ADD17R,1.500000X1.500000*%
%ADD18C,1.500000*%
%ADD19C,2.000000*%
%ADD20C,0.600000*%
%ADD21C,0.250000*%
%ADD22C,0.300000*%
%ADD23C,0.254000*%
G04 APERTURE END LIST*
D10*
D11*
X162306000Y-72644000D03*
X166878000Y-72644000D03*
X171450000Y-72644000D03*
X176022000Y-72644000D03*
X161544000Y-86868000D03*
X161544000Y-82804000D03*
X161544000Y-78740000D03*
X178054000Y-78740000D03*
X178054000Y-82804000D03*
X178054000Y-86868000D03*
D12*
X176054000Y-96520000D03*
D13*
X178054000Y-96520000D03*
D14*
X181864000Y-80264000D03*
D15*
X181864000Y-82804000D03*
X181864000Y-85344000D03*
D14*
X165354000Y-68834000D03*
D15*
X167894000Y-68834000D03*
X170434000Y-68834000D03*
X172974000Y-68834000D03*
D14*
X157734000Y-85344000D03*
D15*
X157734000Y-82804000D03*
X157734000Y-80264000D03*
D16*
X163610000Y-110490000D03*
X175480000Y-110490000D03*
D17*
X173990000Y-104140000D03*
D18*
X172720000Y-101600000D03*
X171450000Y-104140000D03*
X170180000Y-101600000D03*
X168910000Y-104140000D03*
X167640000Y-101600000D03*
X166370000Y-104140000D03*
X165100000Y-101600000D03*
D14*
X171704000Y-97790000D03*
D15*
X171704000Y-95250000D03*
D19*
X161290000Y-96464000D03*
X161290000Y-92964000D03*
X166290000Y-96464000D03*
X166290000Y-92964000D03*
D20*
X179070000Y-91440000D03*
X171680000Y-76430000D03*
X167626000Y-86374000D03*
X176909000Y-107950000D03*
X162165000Y-107950000D03*
X165354000Y-107950000D03*
X173736000Y-107950000D03*
X169926000Y-86614000D03*
X169926000Y-83566000D03*
X173736000Y-93472000D03*
X176784000Y-94488000D03*
X173228000Y-106172000D03*
X170682406Y-105735596D03*
X166878000Y-105664000D03*
D21*
X169926000Y-83566000D02*
X169926000Y-86614000D01*
D22*
X174752000Y-94488000D02*
X173736000Y-93472000D01*
X176784000Y-94488000D02*
X174752000Y-94488000D01*
D21*
X172791596Y-105735596D02*
X173228000Y-106172000D01*
X170682406Y-105735596D02*
X172791596Y-105735596D01*
X166878000Y-105664000D02*
X166578001Y-105364001D01*
X166578001Y-105364001D02*
X166002999Y-105364001D01*
X166002999Y-105364001D02*
X165100000Y-104461002D01*
X165100000Y-104461002D02*
X165100000Y-102660660D01*
X165100000Y-102660660D02*
X165100000Y-101600000D01*
D23*
G36*
X183948000Y-113590000D02*
X155650000Y-113590000D01*
X155650000Y-111802639D01*
X156219411Y-112373045D01*
X157035978Y-112712113D01*
X157920143Y-112712885D01*
X158737300Y-112375242D01*
X159363045Y-111750589D01*
X159684193Y-110977177D01*
X161149574Y-110977177D01*
X161523298Y-111881657D01*
X162214703Y-112574270D01*
X163118529Y-112949572D01*
X164097177Y-112950426D01*
X165001657Y-112576702D01*
X165694270Y-111885297D01*
X166069572Y-110981471D01*
X166069575Y-110977177D01*
X173019574Y-110977177D01*
X173393298Y-111881657D01*
X174084703Y-112574270D01*
X174988529Y-112949572D01*
X175967177Y-112950426D01*
X176871657Y-112576702D01*
X177564270Y-111885297D01*
X177939572Y-110981471D01*
X177939616Y-110930143D01*
X179387115Y-110930143D01*
X179724758Y-111747300D01*
X180349411Y-112373045D01*
X181165978Y-112712113D01*
X182050143Y-112712885D01*
X182867300Y-112375242D01*
X183493045Y-111750589D01*
X183832113Y-110934022D01*
X183832885Y-110049857D01*
X183495242Y-109232700D01*
X182870589Y-108606955D01*
X182054022Y-108267887D01*
X181169857Y-108267115D01*
X180352700Y-108604758D01*
X179726955Y-109229411D01*
X179387887Y-110045978D01*
X179387115Y-110930143D01*
X177939616Y-110930143D01*
X177940426Y-110002823D01*
X177566702Y-109098343D01*
X176875297Y-108405730D01*
X175971471Y-108030428D01*
X174992823Y-108029574D01*
X174088343Y-108403298D01*
X173395730Y-109094703D01*
X173020428Y-109998529D01*
X173019574Y-110977177D01*
X166069575Y-110977177D01*
X166070426Y-110002823D01*
X165696702Y-109098343D01*
X165005297Y-108405730D01*
X164101471Y-108030428D01*
X163122823Y-108029574D01*
X162218343Y-108403298D01*
X161525730Y-109094703D01*
X161150428Y-109998529D01*
X161149574Y-110977177D01*
X159684193Y-110977177D01*
X159702113Y-110934022D01*
X159702885Y-110049857D01*
X159365242Y-109232700D01*
X158740589Y-108606955D01*
X157924022Y-108267887D01*
X157039857Y-108267115D01*
X156222700Y-108604758D01*
X155650000Y-109176459D01*
X155650000Y-101874285D01*
X163714760Y-101874285D01*
X163925169Y-102383515D01*
X164314436Y-102773461D01*
X164340000Y-102784076D01*
X164340000Y-104461002D01*
X164397852Y-104751841D01*
X164562599Y-104998403D01*
X165465598Y-105901402D01*
X165712159Y-106066149D01*
X165760413Y-106075747D01*
X166002999Y-106124001D01*
X166056397Y-106124001D01*
X166084883Y-106192943D01*
X166347673Y-106456192D01*
X166691201Y-106598838D01*
X167063167Y-106599162D01*
X167406943Y-106457117D01*
X167670192Y-106194327D01*
X167812838Y-105850799D01*
X167813162Y-105478833D01*
X167671117Y-105135057D01*
X167502654Y-104966300D01*
X167543461Y-104925564D01*
X167639976Y-104693130D01*
X167735169Y-104923515D01*
X168124436Y-105313461D01*
X168633298Y-105524759D01*
X169184285Y-105525240D01*
X169693515Y-105314831D01*
X170083461Y-104925564D01*
X170173377Y-104709021D01*
X170237540Y-104863923D01*
X170300551Y-104881703D01*
X170153463Y-104942479D01*
X169890214Y-105205269D01*
X169747568Y-105548797D01*
X169747244Y-105920763D01*
X169889289Y-106264539D01*
X170152079Y-106527788D01*
X170495607Y-106670434D01*
X170867573Y-106670758D01*
X171211349Y-106528713D01*
X171244524Y-106495596D01*
X172350036Y-106495596D01*
X172434883Y-106700943D01*
X172697673Y-106964192D01*
X173041201Y-107106838D01*
X173413167Y-107107162D01*
X173756943Y-106965117D01*
X174020192Y-106702327D01*
X174162838Y-106358799D01*
X174163162Y-105986833D01*
X174021117Y-105643057D01*
X173915684Y-105537440D01*
X174740000Y-105537440D01*
X174975317Y-105493162D01*
X175191441Y-105354090D01*
X175336431Y-105141890D01*
X175387440Y-104890000D01*
X175387440Y-103390000D01*
X175343162Y-103154683D01*
X175204090Y-102938559D01*
X174991890Y-102793569D01*
X174740000Y-102742560D01*
X173535842Y-102742560D01*
X173893461Y-102385564D01*
X174104759Y-101876702D01*
X174105240Y-101325715D01*
X173894831Y-100816485D01*
X173505564Y-100426539D01*
X172996702Y-100215241D01*
X172445715Y-100214760D01*
X171936485Y-100425169D01*
X171546539Y-100814436D01*
X171450024Y-101046870D01*
X171354831Y-100816485D01*
X170965564Y-100426539D01*
X170456702Y-100215241D01*
X169905715Y-100214760D01*
X169396485Y-100425169D01*
X169006539Y-100814436D01*
X168916623Y-101030979D01*
X168852460Y-100876077D01*
X168611517Y-100808088D01*
X167819605Y-101600000D01*
X168611517Y-102391912D01*
X168852460Y-102323923D01*
X168911732Y-102157379D01*
X169005169Y-102383515D01*
X169394436Y-102773461D01*
X169903298Y-102984759D01*
X170454285Y-102985240D01*
X170963515Y-102774831D01*
X171353461Y-102385564D01*
X171449976Y-102153130D01*
X171545169Y-102383515D01*
X171934436Y-102773461D01*
X172443298Y-102984759D01*
X172748167Y-102985025D01*
X172643569Y-103138110D01*
X172592560Y-103390000D01*
X172592560Y-103396353D01*
X172421517Y-103348088D01*
X171629605Y-104140000D01*
X171643748Y-104154143D01*
X171464143Y-104333748D01*
X171450000Y-104319605D01*
X171435858Y-104333748D01*
X171256253Y-104154143D01*
X171270395Y-104140000D01*
X170478483Y-103348088D01*
X170237540Y-103416077D01*
X170178268Y-103582621D01*
X170084831Y-103356485D01*
X169897157Y-103168483D01*
X170658088Y-103168483D01*
X171450000Y-103960395D01*
X172241912Y-103168483D01*
X172173923Y-102927540D01*
X171654829Y-102742799D01*
X171104552Y-102770770D01*
X170726077Y-102927540D01*
X170658088Y-103168483D01*
X169897157Y-103168483D01*
X169695564Y-102966539D01*
X169186702Y-102755241D01*
X168635715Y-102754760D01*
X168126485Y-102965169D01*
X167736539Y-103354436D01*
X167640024Y-103586870D01*
X167544831Y-103356485D01*
X167155564Y-102966539D01*
X166646702Y-102755241D01*
X166095715Y-102754760D01*
X165860000Y-102852155D01*
X165860000Y-102784547D01*
X165883515Y-102774831D01*
X166087183Y-102571517D01*
X166848088Y-102571517D01*
X166916077Y-102812460D01*
X167435171Y-102997201D01*
X167985448Y-102969230D01*
X168363923Y-102812460D01*
X168431912Y-102571517D01*
X167640000Y-101779605D01*
X166848088Y-102571517D01*
X166087183Y-102571517D01*
X166273461Y-102385564D01*
X166363377Y-102169021D01*
X166427540Y-102323923D01*
X166668483Y-102391912D01*
X167460395Y-101600000D01*
X166668483Y-100808088D01*
X166427540Y-100876077D01*
X166368268Y-101042621D01*
X166274831Y-100816485D01*
X166087157Y-100628483D01*
X166848088Y-100628483D01*
X167640000Y-101420395D01*
X168431912Y-100628483D01*
X168363923Y-100387540D01*
X167844829Y-100202799D01*
X167294552Y-100230770D01*
X166916077Y-100387540D01*
X166848088Y-100628483D01*
X166087157Y-100628483D01*
X165885564Y-100426539D01*
X165376702Y-100215241D01*
X164825715Y-100214760D01*
X164316485Y-100425169D01*
X163926539Y-100814436D01*
X163715241Y-101323298D01*
X163714760Y-101874285D01*
X155650000Y-101874285D01*
X155650000Y-96787795D01*
X159654716Y-96787795D01*
X159903106Y-97388943D01*
X160362637Y-97849278D01*
X160963352Y-98098716D01*
X161613795Y-98099284D01*
X162214943Y-97850894D01*
X162675278Y-97391363D01*
X162924716Y-96790648D01*
X162924718Y-96787795D01*
X164654716Y-96787795D01*
X164903106Y-97388943D01*
X165362637Y-97849278D01*
X165963352Y-98098716D01*
X166613795Y-98099284D01*
X167214943Y-97850894D01*
X167675278Y-97391363D01*
X167924716Y-96790648D01*
X167925284Y-96140205D01*
X167676894Y-95539057D01*
X167388342Y-95250000D01*
X170189907Y-95250000D01*
X170302946Y-95818285D01*
X170624853Y-96300054D01*
X170666452Y-96327850D01*
X170618683Y-96336838D01*
X170402559Y-96475910D01*
X170257569Y-96688110D01*
X170206560Y-96940000D01*
X170206560Y-98640000D01*
X170250838Y-98875317D01*
X170389910Y-99091441D01*
X170602110Y-99236431D01*
X170854000Y-99287440D01*
X172554000Y-99287440D01*
X172789317Y-99243162D01*
X173005441Y-99104090D01*
X173150431Y-98891890D01*
X173201440Y-98640000D01*
X173201440Y-96940000D01*
X173157162Y-96704683D01*
X173018090Y-96488559D01*
X172805890Y-96343569D01*
X172738459Y-96329914D01*
X172783147Y-96300054D01*
X173105054Y-95818285D01*
X173218093Y-95250000D01*
X173105054Y-94681715D01*
X172783147Y-94199946D01*
X172301378Y-93878039D01*
X171733093Y-93765000D01*
X171674907Y-93765000D01*
X171106622Y-93878039D01*
X170624853Y-94199946D01*
X170302946Y-94681715D01*
X170189907Y-95250000D01*
X167388342Y-95250000D01*
X167217363Y-95078722D01*
X166616648Y-94829284D01*
X165966205Y-94828716D01*
X165365057Y-95077106D01*
X164904722Y-95536637D01*
X164655284Y-96137352D01*
X164654716Y-96787795D01*
X162924718Y-96787795D01*
X162925284Y-96140205D01*
X162676894Y-95539057D01*
X162217363Y-95078722D01*
X161616648Y-94829284D01*
X160966205Y-94828716D01*
X160365057Y-95077106D01*
X159904722Y-95536637D01*
X159655284Y-96137352D01*
X159654716Y-96787795D01*
X155650000Y-96787795D01*
X155650000Y-94116532D01*
X160317073Y-94116532D01*
X160415736Y-94383387D01*
X161025461Y-94609908D01*
X161675460Y-94585856D01*
X162164264Y-94383387D01*
X162262927Y-94116532D01*
X165317073Y-94116532D01*
X165415736Y-94383387D01*
X166025461Y-94609908D01*
X166675460Y-94585856D01*
X167164264Y-94383387D01*
X167262927Y-94116532D01*
X166290000Y-93143605D01*
X165317073Y-94116532D01*
X162262927Y-94116532D01*
X161290000Y-93143605D01*
X160317073Y-94116532D01*
X155650000Y-94116532D01*
X155650000Y-92699461D01*
X159644092Y-92699461D01*
X159668144Y-93349460D01*
X159870613Y-93838264D01*
X160137468Y-93936927D01*
X161110395Y-92964000D01*
X161469605Y-92964000D01*
X162442532Y-93936927D01*
X162709387Y-93838264D01*
X162935908Y-93228539D01*
X162916331Y-92699461D01*
X164644092Y-92699461D01*
X164668144Y-93349460D01*
X164870613Y-93838264D01*
X165137468Y-93936927D01*
X166110395Y-92964000D01*
X166469605Y-92964000D01*
X167442532Y-93936927D01*
X167709387Y-93838264D01*
X167776666Y-93657167D01*
X172800838Y-93657167D01*
X172942883Y-94000943D01*
X173205673Y-94264192D01*
X173549201Y-94406838D01*
X173560690Y-94406848D01*
X174196921Y-95043079D01*
X174451593Y-95213245D01*
X174752000Y-95273000D01*
X174790882Y-95273000D01*
X174657569Y-95468110D01*
X174606560Y-95720000D01*
X174606560Y-97320000D01*
X174650838Y-97555317D01*
X174789910Y-97771441D01*
X175002110Y-97916431D01*
X175254000Y-97967440D01*
X176854000Y-97967440D01*
X177089317Y-97923162D01*
X177305441Y-97784090D01*
X177309977Y-97777452D01*
X177837223Y-97966965D01*
X178407454Y-97939778D01*
X178808005Y-97773864D01*
X178882139Y-97527745D01*
X178054000Y-96699605D01*
X178039858Y-96713748D01*
X177860253Y-96534143D01*
X177874395Y-96520000D01*
X178233605Y-96520000D01*
X179061745Y-97348139D01*
X179307864Y-97274005D01*
X179500965Y-96736777D01*
X179473778Y-96166546D01*
X179307864Y-95765995D01*
X179061745Y-95691861D01*
X178233605Y-96520000D01*
X177874395Y-96520000D01*
X177860253Y-96505858D01*
X178039858Y-96326252D01*
X178054000Y-96340395D01*
X178882139Y-95512255D01*
X178808005Y-95266136D01*
X178270777Y-95073035D01*
X177700546Y-95100222D01*
X177347777Y-95246344D01*
X177576192Y-95018327D01*
X177718838Y-94674799D01*
X177719162Y-94302833D01*
X177577117Y-93959057D01*
X177314327Y-93695808D01*
X176970799Y-93553162D01*
X176598833Y-93552838D01*
X176255057Y-93694883D01*
X176246926Y-93703000D01*
X175077158Y-93703000D01*
X174671153Y-93296995D01*
X174671162Y-93286833D01*
X174529117Y-92943057D01*
X174266327Y-92679808D01*
X173922799Y-92537162D01*
X173550833Y-92536838D01*
X173207057Y-92678883D01*
X172943808Y-92941673D01*
X172801162Y-93285201D01*
X172800838Y-93657167D01*
X167776666Y-93657167D01*
X167935908Y-93228539D01*
X167911856Y-92578540D01*
X167709387Y-92089736D01*
X167442532Y-91991073D01*
X166469605Y-92964000D01*
X166110395Y-92964000D01*
X165137468Y-91991073D01*
X164870613Y-92089736D01*
X164644092Y-92699461D01*
X162916331Y-92699461D01*
X162911856Y-92578540D01*
X162709387Y-92089736D01*
X162442532Y-91991073D01*
X161469605Y-92964000D01*
X161110395Y-92964000D01*
X160137468Y-91991073D01*
X159870613Y-92089736D01*
X159644092Y-92699461D01*
X155650000Y-92699461D01*
X155650000Y-91811468D01*
X160317073Y-91811468D01*
X161290000Y-92784395D01*
X162262927Y-91811468D01*
X165317073Y-91811468D01*
X166290000Y-92784395D01*
X167262927Y-91811468D01*
X167164264Y-91544613D01*
X166554539Y-91318092D01*
X165904540Y-91342144D01*
X165415736Y-91544613D01*
X165317073Y-91811468D01*
X162262927Y-91811468D01*
X162164264Y-91544613D01*
X161554539Y-91318092D01*
X160904540Y-91342144D01*
X160415736Y-91544613D01*
X160317073Y-91811468D01*
X155650000Y-91811468D01*
X155650000Y-88381970D01*
X160209635Y-88381970D01*
X160369418Y-88700739D01*
X161160187Y-89010723D01*
X162009387Y-88994497D01*
X162718582Y-88700739D01*
X162878365Y-88381970D01*
X161544000Y-87047605D01*
X160209635Y-88381970D01*
X155650000Y-88381970D01*
X155650000Y-85629750D01*
X156249000Y-85629750D01*
X156249000Y-86320310D01*
X156345673Y-86553699D01*
X156524302Y-86732327D01*
X156757691Y-86829000D01*
X157448250Y-86829000D01*
X157607000Y-86670250D01*
X157607000Y-85471000D01*
X157861000Y-85471000D01*
X157861000Y-86670250D01*
X158019750Y-86829000D01*
X158710309Y-86829000D01*
X158943698Y-86732327D01*
X159122327Y-86553699D01*
X159151119Y-86484187D01*
X159401277Y-86484187D01*
X159417503Y-87333387D01*
X159711261Y-88042582D01*
X160030030Y-88202365D01*
X161364395Y-86868000D01*
X161723605Y-86868000D01*
X163057970Y-88202365D01*
X163376739Y-88042582D01*
X163686723Y-87251813D01*
X163670497Y-86402613D01*
X163376739Y-85693418D01*
X163057970Y-85533635D01*
X161723605Y-86868000D01*
X161364395Y-86868000D01*
X160030030Y-85533635D01*
X159711261Y-85693418D01*
X159401277Y-86484187D01*
X159151119Y-86484187D01*
X159219000Y-86320310D01*
X159219000Y-85629750D01*
X159060250Y-85471000D01*
X157861000Y-85471000D01*
X157607000Y-85471000D01*
X156407750Y-85471000D01*
X156249000Y-85629750D01*
X155650000Y-85629750D01*
X155650000Y-80264000D01*
X156219907Y-80264000D01*
X156332946Y-80832285D01*
X156654853Y-81314054D01*
X156984026Y-81534000D01*
X156654853Y-81753946D01*
X156332946Y-82235715D01*
X156219907Y-82804000D01*
X156332946Y-83372285D01*
X156654853Y-83854054D01*
X156698777Y-83883403D01*
X156524302Y-83955673D01*
X156345673Y-84134301D01*
X156249000Y-84367690D01*
X156249000Y-85058250D01*
X156407750Y-85217000D01*
X157607000Y-85217000D01*
X157607000Y-85197000D01*
X157861000Y-85197000D01*
X157861000Y-85217000D01*
X159060250Y-85217000D01*
X159219000Y-85058250D01*
X159219000Y-84367690D01*
X159122327Y-84134301D01*
X158943698Y-83955673D01*
X158769223Y-83883403D01*
X158813147Y-83854054D01*
X159135054Y-83372285D01*
X159248093Y-82804000D01*
X159135054Y-82235715D01*
X158813147Y-81753946D01*
X158483974Y-81534000D01*
X158813147Y-81314054D01*
X159135054Y-80832285D01*
X159248093Y-80264000D01*
X159135054Y-79695715D01*
X158813147Y-79213946D01*
X158736624Y-79162815D01*
X159408630Y-79162815D01*
X159732980Y-79947800D01*
X160333041Y-80548909D01*
X160870656Y-80772147D01*
X160336200Y-80992980D01*
X159735091Y-81593041D01*
X159409372Y-82377459D01*
X159408630Y-83226815D01*
X159732980Y-84011800D01*
X160333041Y-84612909D01*
X160860402Y-84831889D01*
X160369418Y-85035261D01*
X160209635Y-85354030D01*
X161544000Y-86688395D01*
X162878365Y-85354030D01*
X162718582Y-85035261D01*
X162213717Y-84837352D01*
X162751800Y-84615020D01*
X163352909Y-84014959D01*
X163462445Y-83751167D01*
X168990838Y-83751167D01*
X169132883Y-84094943D01*
X169166000Y-84128118D01*
X169166000Y-86051537D01*
X169133808Y-86083673D01*
X168991162Y-86427201D01*
X168990838Y-86799167D01*
X169132883Y-87142943D01*
X169395673Y-87406192D01*
X169739201Y-87548838D01*
X170111167Y-87549162D01*
X170454943Y-87407117D01*
X170718192Y-87144327D01*
X170860838Y-86800799D01*
X170861162Y-86428833D01*
X170719117Y-86085057D01*
X170686000Y-86051882D01*
X170686000Y-84128463D01*
X170718192Y-84096327D01*
X170860838Y-83752799D01*
X170861162Y-83380833D01*
X170797524Y-83226815D01*
X175918630Y-83226815D01*
X176242980Y-84011800D01*
X176843041Y-84612909D01*
X177380656Y-84836147D01*
X176846200Y-85056980D01*
X176245091Y-85657041D01*
X175919372Y-86441459D01*
X175918630Y-87290815D01*
X176242980Y-88075800D01*
X176843041Y-88676909D01*
X177627459Y-89002628D01*
X178476815Y-89003370D01*
X179261800Y-88679020D01*
X179862909Y-88078959D01*
X180188628Y-87294541D01*
X180189370Y-86445185D01*
X179865020Y-85660200D01*
X179264959Y-85059091D01*
X178727344Y-84835853D01*
X179261800Y-84615020D01*
X179862909Y-84014959D01*
X180188628Y-83230541D01*
X180189000Y-82804000D01*
X180349907Y-82804000D01*
X180462946Y-83372285D01*
X180784853Y-83854054D01*
X181114026Y-84074000D01*
X180784853Y-84293946D01*
X180462946Y-84775715D01*
X180349907Y-85344000D01*
X180462946Y-85912285D01*
X180784853Y-86394054D01*
X181266622Y-86715961D01*
X181834907Y-86829000D01*
X181893093Y-86829000D01*
X182461378Y-86715961D01*
X182943147Y-86394054D01*
X183265054Y-85912285D01*
X183378093Y-85344000D01*
X183265054Y-84775715D01*
X182943147Y-84293946D01*
X182613974Y-84074000D01*
X182943147Y-83854054D01*
X183265054Y-83372285D01*
X183378093Y-82804000D01*
X183265054Y-82235715D01*
X182943147Y-81753946D01*
X182899223Y-81724597D01*
X183073698Y-81652327D01*
X183252327Y-81473699D01*
X183349000Y-81240310D01*
X183349000Y-80549750D01*
X183190250Y-80391000D01*
X181991000Y-80391000D01*
X181991000Y-80411000D01*
X181737000Y-80411000D01*
X181737000Y-80391000D01*
X180537750Y-80391000D01*
X180379000Y-80549750D01*
X180379000Y-81240310D01*
X180475673Y-81473699D01*
X180654302Y-81652327D01*
X180828777Y-81724597D01*
X180784853Y-81753946D01*
X180462946Y-82235715D01*
X180349907Y-82804000D01*
X180189000Y-82804000D01*
X180189370Y-82381185D01*
X179865020Y-81596200D01*
X179264959Y-80995091D01*
X178737598Y-80776111D01*
X179228582Y-80572739D01*
X179388365Y-80253970D01*
X178054000Y-78919605D01*
X176719635Y-80253970D01*
X176879418Y-80572739D01*
X177384283Y-80770648D01*
X176846200Y-80992980D01*
X176245091Y-81593041D01*
X175919372Y-82377459D01*
X175918630Y-83226815D01*
X170797524Y-83226815D01*
X170719117Y-83037057D01*
X170456327Y-82773808D01*
X170112799Y-82631162D01*
X169740833Y-82630838D01*
X169397057Y-82772883D01*
X169133808Y-83035673D01*
X168991162Y-83379201D01*
X168990838Y-83751167D01*
X163462445Y-83751167D01*
X163678628Y-83230541D01*
X163679370Y-82381185D01*
X163355020Y-81596200D01*
X162754959Y-80995091D01*
X162217344Y-80771853D01*
X162751800Y-80551020D01*
X163352909Y-79950959D01*
X163678628Y-79166541D01*
X163679335Y-78356187D01*
X175911277Y-78356187D01*
X175927503Y-79205387D01*
X176221261Y-79914582D01*
X176540030Y-80074365D01*
X177874395Y-78740000D01*
X178233605Y-78740000D01*
X179567970Y-80074365D01*
X179886739Y-79914582D01*
X180132482Y-79287690D01*
X180379000Y-79287690D01*
X180379000Y-79978250D01*
X180537750Y-80137000D01*
X181737000Y-80137000D01*
X181737000Y-78937750D01*
X181991000Y-78937750D01*
X181991000Y-80137000D01*
X183190250Y-80137000D01*
X183349000Y-79978250D01*
X183349000Y-79287690D01*
X183252327Y-79054301D01*
X183073698Y-78875673D01*
X182840309Y-78779000D01*
X182149750Y-78779000D01*
X181991000Y-78937750D01*
X181737000Y-78937750D01*
X181578250Y-78779000D01*
X180887691Y-78779000D01*
X180654302Y-78875673D01*
X180475673Y-79054301D01*
X180379000Y-79287690D01*
X180132482Y-79287690D01*
X180196723Y-79123813D01*
X180180497Y-78274613D01*
X179886739Y-77565418D01*
X179567970Y-77405635D01*
X178233605Y-78740000D01*
X177874395Y-78740000D01*
X176540030Y-77405635D01*
X176221261Y-77565418D01*
X175911277Y-78356187D01*
X163679335Y-78356187D01*
X163679370Y-78317185D01*
X163355020Y-77532200D01*
X163049384Y-77226030D01*
X176719635Y-77226030D01*
X178054000Y-78560395D01*
X179388365Y-77226030D01*
X179228582Y-76907261D01*
X178437813Y-76597277D01*
X177588613Y-76613503D01*
X176879418Y-76907261D01*
X176719635Y-77226030D01*
X163049384Y-77226030D01*
X162754959Y-76931091D01*
X161970541Y-76605372D01*
X161121185Y-76604630D01*
X160336200Y-76928980D01*
X159735091Y-77529041D01*
X159409372Y-78313459D01*
X159408630Y-79162815D01*
X158736624Y-79162815D01*
X158331378Y-78892039D01*
X157763093Y-78779000D01*
X157704907Y-78779000D01*
X157136622Y-78892039D01*
X156654853Y-79213946D01*
X156332946Y-79695715D01*
X156219907Y-80264000D01*
X155650000Y-80264000D01*
X155650000Y-74157970D01*
X160971635Y-74157970D01*
X161131418Y-74476739D01*
X161922187Y-74786723D01*
X162771387Y-74770497D01*
X163480582Y-74476739D01*
X163640365Y-74157970D01*
X162306000Y-72823605D01*
X160971635Y-74157970D01*
X155650000Y-74157970D01*
X155650000Y-72260187D01*
X160163277Y-72260187D01*
X160179503Y-73109387D01*
X160473261Y-73818582D01*
X160792030Y-73978365D01*
X162126395Y-72644000D01*
X162485605Y-72644000D01*
X163819970Y-73978365D01*
X164138739Y-73818582D01*
X164433434Y-73066815D01*
X164742630Y-73066815D01*
X165066980Y-73851800D01*
X165667041Y-74452909D01*
X166451459Y-74778628D01*
X167300815Y-74779370D01*
X168085800Y-74455020D01*
X168686909Y-73854959D01*
X169012628Y-73070541D01*
X169012631Y-73066815D01*
X169314630Y-73066815D01*
X169638980Y-73851800D01*
X170239041Y-74452909D01*
X171023459Y-74778628D01*
X171872815Y-74779370D01*
X172657800Y-74455020D01*
X173258909Y-73854959D01*
X173584628Y-73070541D01*
X173584631Y-73066815D01*
X173886630Y-73066815D01*
X174210980Y-73851800D01*
X174811041Y-74452909D01*
X175595459Y-74778628D01*
X176444815Y-74779370D01*
X177229800Y-74455020D01*
X177830909Y-73854959D01*
X178156628Y-73070541D01*
X178157370Y-72221185D01*
X177833020Y-71436200D01*
X177232959Y-70835091D01*
X176448541Y-70509372D01*
X175599185Y-70508630D01*
X174814200Y-70832980D01*
X174213091Y-71433041D01*
X173887372Y-72217459D01*
X173886630Y-73066815D01*
X173584631Y-73066815D01*
X173585370Y-72221185D01*
X173261020Y-71436200D01*
X172660959Y-70835091D01*
X171876541Y-70509372D01*
X171027185Y-70508630D01*
X170242200Y-70832980D01*
X169641091Y-71433041D01*
X169315372Y-72217459D01*
X169314630Y-73066815D01*
X169012631Y-73066815D01*
X169013370Y-72221185D01*
X168689020Y-71436200D01*
X168088959Y-70835091D01*
X167304541Y-70509372D01*
X166455185Y-70508630D01*
X165670200Y-70832980D01*
X165069091Y-71433041D01*
X164743372Y-72217459D01*
X164742630Y-73066815D01*
X164433434Y-73066815D01*
X164448723Y-73027813D01*
X164432497Y-72178613D01*
X164138739Y-71469418D01*
X163819970Y-71309635D01*
X162485605Y-72644000D01*
X162126395Y-72644000D01*
X160792030Y-71309635D01*
X160473261Y-71469418D01*
X160163277Y-72260187D01*
X155650000Y-72260187D01*
X155650000Y-71162639D01*
X156219411Y-71733045D01*
X157035978Y-72072113D01*
X157920143Y-72072885D01*
X158737300Y-71735242D01*
X159343570Y-71130030D01*
X160971635Y-71130030D01*
X162306000Y-72464395D01*
X163640365Y-71130030D01*
X163480582Y-70811261D01*
X162689813Y-70501277D01*
X161840613Y-70517503D01*
X161131418Y-70811261D01*
X160971635Y-71130030D01*
X159343570Y-71130030D01*
X159363045Y-71110589D01*
X159702113Y-70294022D01*
X159702885Y-69409857D01*
X159583016Y-69119750D01*
X163869000Y-69119750D01*
X163869000Y-69810309D01*
X163965673Y-70043698D01*
X164144301Y-70222327D01*
X164377690Y-70319000D01*
X165068250Y-70319000D01*
X165227000Y-70160250D01*
X165227000Y-68961000D01*
X164027750Y-68961000D01*
X163869000Y-69119750D01*
X159583016Y-69119750D01*
X159365242Y-68592700D01*
X158740589Y-67966955D01*
X158477452Y-67857691D01*
X163869000Y-67857691D01*
X163869000Y-68548250D01*
X164027750Y-68707000D01*
X165227000Y-68707000D01*
X165227000Y-67507750D01*
X165481000Y-67507750D01*
X165481000Y-68707000D01*
X165501000Y-68707000D01*
X165501000Y-68961000D01*
X165481000Y-68961000D01*
X165481000Y-70160250D01*
X165639750Y-70319000D01*
X166330310Y-70319000D01*
X166563699Y-70222327D01*
X166742327Y-70043698D01*
X166814597Y-69869223D01*
X166843946Y-69913147D01*
X167325715Y-70235054D01*
X167894000Y-70348093D01*
X168462285Y-70235054D01*
X168944054Y-69913147D01*
X169164000Y-69583974D01*
X169383946Y-69913147D01*
X169865715Y-70235054D01*
X170434000Y-70348093D01*
X171002285Y-70235054D01*
X171484054Y-69913147D01*
X171704000Y-69583974D01*
X171923946Y-69913147D01*
X172405715Y-70235054D01*
X172974000Y-70348093D01*
X173265334Y-70290143D01*
X179387115Y-70290143D01*
X179724758Y-71107300D01*
X180349411Y-71733045D01*
X181165978Y-72072113D01*
X182050143Y-72072885D01*
X182867300Y-71735242D01*
X183493045Y-71110589D01*
X183832113Y-70294022D01*
X183832885Y-69409857D01*
X183495242Y-68592700D01*
X182870589Y-67966955D01*
X182054022Y-67627887D01*
X181169857Y-67627115D01*
X180352700Y-67964758D01*
X179726955Y-68589411D01*
X179387887Y-69405978D01*
X179387115Y-70290143D01*
X173265334Y-70290143D01*
X173542285Y-70235054D01*
X174024054Y-69913147D01*
X174345961Y-69431378D01*
X174459000Y-68863093D01*
X174459000Y-68804907D01*
X174345961Y-68236622D01*
X174024054Y-67754853D01*
X173542285Y-67432946D01*
X172974000Y-67319907D01*
X172405715Y-67432946D01*
X171923946Y-67754853D01*
X171704000Y-68084026D01*
X171484054Y-67754853D01*
X171002285Y-67432946D01*
X170434000Y-67319907D01*
X169865715Y-67432946D01*
X169383946Y-67754853D01*
X169164000Y-68084026D01*
X168944054Y-67754853D01*
X168462285Y-67432946D01*
X167894000Y-67319907D01*
X167325715Y-67432946D01*
X166843946Y-67754853D01*
X166814597Y-67798777D01*
X166742327Y-67624302D01*
X166563699Y-67445673D01*
X166330310Y-67349000D01*
X165639750Y-67349000D01*
X165481000Y-67507750D01*
X165227000Y-67507750D01*
X165068250Y-67349000D01*
X164377690Y-67349000D01*
X164144301Y-67445673D01*
X163965673Y-67624302D01*
X163869000Y-67857691D01*
X158477452Y-67857691D01*
X157924022Y-67627887D01*
X157039857Y-67627115D01*
X156222700Y-67964758D01*
X155650000Y-68536459D01*
X155650000Y-66750000D01*
X183948000Y-66750000D01*
X183948000Y-113590000D01*
X183948000Y-113590000D01*
G37*
X183948000Y-113590000D02*
X155650000Y-113590000D01*
X155650000Y-111802639D01*
X156219411Y-112373045D01*
X157035978Y-112712113D01*
X157920143Y-112712885D01*
X158737300Y-112375242D01*
X159363045Y-111750589D01*
X159684193Y-110977177D01*
X161149574Y-110977177D01*
X161523298Y-111881657D01*
X162214703Y-112574270D01*
X163118529Y-112949572D01*
X164097177Y-112950426D01*
X165001657Y-112576702D01*
X165694270Y-111885297D01*
X166069572Y-110981471D01*
X166069575Y-110977177D01*
X173019574Y-110977177D01*
X173393298Y-111881657D01*
X174084703Y-112574270D01*
X174988529Y-112949572D01*
X175967177Y-112950426D01*
X176871657Y-112576702D01*
X177564270Y-111885297D01*
X177939572Y-110981471D01*
X177939616Y-110930143D01*
X179387115Y-110930143D01*
X179724758Y-111747300D01*
X180349411Y-112373045D01*
X181165978Y-112712113D01*
X182050143Y-112712885D01*
X182867300Y-112375242D01*
X183493045Y-111750589D01*
X183832113Y-110934022D01*
X183832885Y-110049857D01*
X183495242Y-109232700D01*
X182870589Y-108606955D01*
X182054022Y-108267887D01*
X181169857Y-108267115D01*
X180352700Y-108604758D01*
X179726955Y-109229411D01*
X179387887Y-110045978D01*
X179387115Y-110930143D01*
X177939616Y-110930143D01*
X177940426Y-110002823D01*
X177566702Y-109098343D01*
X176875297Y-108405730D01*
X175971471Y-108030428D01*
X174992823Y-108029574D01*
X174088343Y-108403298D01*
X173395730Y-109094703D01*
X173020428Y-109998529D01*
X173019574Y-110977177D01*
X166069575Y-110977177D01*
X166070426Y-110002823D01*
X165696702Y-109098343D01*
X165005297Y-108405730D01*
X164101471Y-108030428D01*
X163122823Y-108029574D01*
X162218343Y-108403298D01*
X161525730Y-109094703D01*
X161150428Y-109998529D01*
X161149574Y-110977177D01*
X159684193Y-110977177D01*
X159702113Y-110934022D01*
X159702885Y-110049857D01*
X159365242Y-109232700D01*
X158740589Y-108606955D01*
X157924022Y-108267887D01*
X157039857Y-108267115D01*
X156222700Y-108604758D01*
X155650000Y-109176459D01*
X155650000Y-101874285D01*
X163714760Y-101874285D01*
X163925169Y-102383515D01*
X164314436Y-102773461D01*
X164340000Y-102784076D01*
X164340000Y-104461002D01*
X164397852Y-104751841D01*
X164562599Y-104998403D01*
X165465598Y-105901402D01*
X165712159Y-106066149D01*
X165760413Y-106075747D01*
X166002999Y-106124001D01*
X166056397Y-106124001D01*
X166084883Y-106192943D01*
X166347673Y-106456192D01*
X166691201Y-106598838D01*
X167063167Y-106599162D01*
X167406943Y-106457117D01*
X167670192Y-106194327D01*
X167812838Y-105850799D01*
X167813162Y-105478833D01*
X167671117Y-105135057D01*
X167502654Y-104966300D01*
X167543461Y-104925564D01*
X167639976Y-104693130D01*
X167735169Y-104923515D01*
X168124436Y-105313461D01*
X168633298Y-105524759D01*
X169184285Y-105525240D01*
X169693515Y-105314831D01*
X170083461Y-104925564D01*
X170173377Y-104709021D01*
X170237540Y-104863923D01*
X170300551Y-104881703D01*
X170153463Y-104942479D01*
X169890214Y-105205269D01*
X169747568Y-105548797D01*
X169747244Y-105920763D01*
X169889289Y-106264539D01*
X170152079Y-106527788D01*
X170495607Y-106670434D01*
X170867573Y-106670758D01*
X171211349Y-106528713D01*
X171244524Y-106495596D01*
X172350036Y-106495596D01*
X172434883Y-106700943D01*
X172697673Y-106964192D01*
X173041201Y-107106838D01*
X173413167Y-107107162D01*
X173756943Y-106965117D01*
X174020192Y-106702327D01*
X174162838Y-106358799D01*
X174163162Y-105986833D01*
X174021117Y-105643057D01*
X173915684Y-105537440D01*
X174740000Y-105537440D01*
X174975317Y-105493162D01*
X175191441Y-105354090D01*
X175336431Y-105141890D01*
X175387440Y-104890000D01*
X175387440Y-103390000D01*
X175343162Y-103154683D01*
X175204090Y-102938559D01*
X174991890Y-102793569D01*
X174740000Y-102742560D01*
X173535842Y-102742560D01*
X173893461Y-102385564D01*
X174104759Y-101876702D01*
X174105240Y-101325715D01*
X173894831Y-100816485D01*
X173505564Y-100426539D01*
X172996702Y-100215241D01*
X172445715Y-100214760D01*
X171936485Y-100425169D01*
X171546539Y-100814436D01*
X171450024Y-101046870D01*
X171354831Y-100816485D01*
X170965564Y-100426539D01*
X170456702Y-100215241D01*
X169905715Y-100214760D01*
X169396485Y-100425169D01*
X169006539Y-100814436D01*
X168916623Y-101030979D01*
X168852460Y-100876077D01*
X168611517Y-100808088D01*
X167819605Y-101600000D01*
X168611517Y-102391912D01*
X168852460Y-102323923D01*
X168911732Y-102157379D01*
X169005169Y-102383515D01*
X169394436Y-102773461D01*
X169903298Y-102984759D01*
X170454285Y-102985240D01*
X170963515Y-102774831D01*
X171353461Y-102385564D01*
X171449976Y-102153130D01*
X171545169Y-102383515D01*
X171934436Y-102773461D01*
X172443298Y-102984759D01*
X172748167Y-102985025D01*
X172643569Y-103138110D01*
X172592560Y-103390000D01*
X172592560Y-103396353D01*
X172421517Y-103348088D01*
X171629605Y-104140000D01*
X171643748Y-104154143D01*
X171464143Y-104333748D01*
X171450000Y-104319605D01*
X171435858Y-104333748D01*
X171256253Y-104154143D01*
X171270395Y-104140000D01*
X170478483Y-103348088D01*
X170237540Y-103416077D01*
X170178268Y-103582621D01*
X170084831Y-103356485D01*
X169897157Y-103168483D01*
X170658088Y-103168483D01*
X171450000Y-103960395D01*
X172241912Y-103168483D01*
X172173923Y-102927540D01*
X171654829Y-102742799D01*
X171104552Y-102770770D01*
X170726077Y-102927540D01*
X170658088Y-103168483D01*
X169897157Y-103168483D01*
X169695564Y-102966539D01*
X169186702Y-102755241D01*
X168635715Y-102754760D01*
X168126485Y-102965169D01*
X167736539Y-103354436D01*
X167640024Y-103586870D01*
X167544831Y-103356485D01*
X167155564Y-102966539D01*
X166646702Y-102755241D01*
X166095715Y-102754760D01*
X165860000Y-102852155D01*
X165860000Y-102784547D01*
X165883515Y-102774831D01*
X166087183Y-102571517D01*
X166848088Y-102571517D01*
X166916077Y-102812460D01*
X167435171Y-102997201D01*
X167985448Y-102969230D01*
X168363923Y-102812460D01*
X168431912Y-102571517D01*
X167640000Y-101779605D01*
X166848088Y-102571517D01*
X166087183Y-102571517D01*
X166273461Y-102385564D01*
X166363377Y-102169021D01*
X166427540Y-102323923D01*
X166668483Y-102391912D01*
X167460395Y-101600000D01*
X166668483Y-100808088D01*
X166427540Y-100876077D01*
X166368268Y-101042621D01*
X166274831Y-100816485D01*
X166087157Y-100628483D01*
X166848088Y-100628483D01*
X167640000Y-101420395D01*
X168431912Y-100628483D01*
X168363923Y-100387540D01*
X167844829Y-100202799D01*
X167294552Y-100230770D01*
X166916077Y-100387540D01*
X166848088Y-100628483D01*
X166087157Y-100628483D01*
X165885564Y-100426539D01*
X165376702Y-100215241D01*
X164825715Y-100214760D01*
X164316485Y-100425169D01*
X163926539Y-100814436D01*
X163715241Y-101323298D01*
X163714760Y-101874285D01*
X155650000Y-101874285D01*
X155650000Y-96787795D01*
X159654716Y-96787795D01*
X159903106Y-97388943D01*
X160362637Y-97849278D01*
X160963352Y-98098716D01*
X161613795Y-98099284D01*
X162214943Y-97850894D01*
X162675278Y-97391363D01*
X162924716Y-96790648D01*
X162924718Y-96787795D01*
X164654716Y-96787795D01*
X164903106Y-97388943D01*
X165362637Y-97849278D01*
X165963352Y-98098716D01*
X166613795Y-98099284D01*
X167214943Y-97850894D01*
X167675278Y-97391363D01*
X167924716Y-96790648D01*
X167925284Y-96140205D01*
X167676894Y-95539057D01*
X167388342Y-95250000D01*
X170189907Y-95250000D01*
X170302946Y-95818285D01*
X170624853Y-96300054D01*
X170666452Y-96327850D01*
X170618683Y-96336838D01*
X170402559Y-96475910D01*
X170257569Y-96688110D01*
X170206560Y-96940000D01*
X170206560Y-98640000D01*
X170250838Y-98875317D01*
X170389910Y-99091441D01*
X170602110Y-99236431D01*
X170854000Y-99287440D01*
X172554000Y-99287440D01*
X172789317Y-99243162D01*
X173005441Y-99104090D01*
X173150431Y-98891890D01*
X173201440Y-98640000D01*
X173201440Y-96940000D01*
X173157162Y-96704683D01*
X173018090Y-96488559D01*
X172805890Y-96343569D01*
X172738459Y-96329914D01*
X172783147Y-96300054D01*
X173105054Y-95818285D01*
X173218093Y-95250000D01*
X173105054Y-94681715D01*
X172783147Y-94199946D01*
X172301378Y-93878039D01*
X171733093Y-93765000D01*
X171674907Y-93765000D01*
X171106622Y-93878039D01*
X170624853Y-94199946D01*
X170302946Y-94681715D01*
X170189907Y-95250000D01*
X167388342Y-95250000D01*
X167217363Y-95078722D01*
X166616648Y-94829284D01*
X165966205Y-94828716D01*
X165365057Y-95077106D01*
X164904722Y-95536637D01*
X164655284Y-96137352D01*
X164654716Y-96787795D01*
X162924718Y-96787795D01*
X162925284Y-96140205D01*
X162676894Y-95539057D01*
X162217363Y-95078722D01*
X161616648Y-94829284D01*
X160966205Y-94828716D01*
X160365057Y-95077106D01*
X159904722Y-95536637D01*
X159655284Y-96137352D01*
X159654716Y-96787795D01*
X155650000Y-96787795D01*
X155650000Y-94116532D01*
X160317073Y-94116532D01*
X160415736Y-94383387D01*
X161025461Y-94609908D01*
X161675460Y-94585856D01*
X162164264Y-94383387D01*
X162262927Y-94116532D01*
X165317073Y-94116532D01*
X165415736Y-94383387D01*
X166025461Y-94609908D01*
X166675460Y-94585856D01*
X167164264Y-94383387D01*
X167262927Y-94116532D01*
X166290000Y-93143605D01*
X165317073Y-94116532D01*
X162262927Y-94116532D01*
X161290000Y-93143605D01*
X160317073Y-94116532D01*
X155650000Y-94116532D01*
X155650000Y-92699461D01*
X159644092Y-92699461D01*
X159668144Y-93349460D01*
X159870613Y-93838264D01*
X160137468Y-93936927D01*
X161110395Y-92964000D01*
X161469605Y-92964000D01*
X162442532Y-93936927D01*
X162709387Y-93838264D01*
X162935908Y-93228539D01*
X162916331Y-92699461D01*
X164644092Y-92699461D01*
X164668144Y-93349460D01*
X164870613Y-93838264D01*
X165137468Y-93936927D01*
X166110395Y-92964000D01*
X166469605Y-92964000D01*
X167442532Y-93936927D01*
X167709387Y-93838264D01*
X167776666Y-93657167D01*
X172800838Y-93657167D01*
X172942883Y-94000943D01*
X173205673Y-94264192D01*
X173549201Y-94406838D01*
X173560690Y-94406848D01*
X174196921Y-95043079D01*
X174451593Y-95213245D01*
X174752000Y-95273000D01*
X174790882Y-95273000D01*
X174657569Y-95468110D01*
X174606560Y-95720000D01*
X174606560Y-97320000D01*
X174650838Y-97555317D01*
X174789910Y-97771441D01*
X175002110Y-97916431D01*
X175254000Y-97967440D01*
X176854000Y-97967440D01*
X177089317Y-97923162D01*
X177305441Y-97784090D01*
X177309977Y-97777452D01*
X177837223Y-97966965D01*
X178407454Y-97939778D01*
X178808005Y-97773864D01*
X178882139Y-97527745D01*
X178054000Y-96699605D01*
X178039858Y-96713748D01*
X177860253Y-96534143D01*
X177874395Y-96520000D01*
X178233605Y-96520000D01*
X179061745Y-97348139D01*
X179307864Y-97274005D01*
X179500965Y-96736777D01*
X179473778Y-96166546D01*
X179307864Y-95765995D01*
X179061745Y-95691861D01*
X178233605Y-96520000D01*
X177874395Y-96520000D01*
X177860253Y-96505858D01*
X178039858Y-96326252D01*
X178054000Y-96340395D01*
X178882139Y-95512255D01*
X178808005Y-95266136D01*
X178270777Y-95073035D01*
X177700546Y-95100222D01*
X177347777Y-95246344D01*
X177576192Y-95018327D01*
X177718838Y-94674799D01*
X177719162Y-94302833D01*
X177577117Y-93959057D01*
X177314327Y-93695808D01*
X176970799Y-93553162D01*
X176598833Y-93552838D01*
X176255057Y-93694883D01*
X176246926Y-93703000D01*
X175077158Y-93703000D01*
X174671153Y-93296995D01*
X174671162Y-93286833D01*
X174529117Y-92943057D01*
X174266327Y-92679808D01*
X173922799Y-92537162D01*
X173550833Y-92536838D01*
X173207057Y-92678883D01*
X172943808Y-92941673D01*
X172801162Y-93285201D01*
X172800838Y-93657167D01*
X167776666Y-93657167D01*
X167935908Y-93228539D01*
X167911856Y-92578540D01*
X167709387Y-92089736D01*
X167442532Y-91991073D01*
X166469605Y-92964000D01*
X166110395Y-92964000D01*
X165137468Y-91991073D01*
X164870613Y-92089736D01*
X164644092Y-92699461D01*
X162916331Y-92699461D01*
X162911856Y-92578540D01*
X162709387Y-92089736D01*
X162442532Y-91991073D01*
X161469605Y-92964000D01*
X161110395Y-92964000D01*
X160137468Y-91991073D01*
X159870613Y-92089736D01*
X159644092Y-92699461D01*
X155650000Y-92699461D01*
X155650000Y-91811468D01*
X160317073Y-91811468D01*
X161290000Y-92784395D01*
X162262927Y-91811468D01*
X165317073Y-91811468D01*
X166290000Y-92784395D01*
X167262927Y-91811468D01*
X167164264Y-91544613D01*
X166554539Y-91318092D01*
X165904540Y-91342144D01*
X165415736Y-91544613D01*
X165317073Y-91811468D01*
X162262927Y-91811468D01*
X162164264Y-91544613D01*
X161554539Y-91318092D01*
X160904540Y-91342144D01*
X160415736Y-91544613D01*
X160317073Y-91811468D01*
X155650000Y-91811468D01*
X155650000Y-88381970D01*
X160209635Y-88381970D01*
X160369418Y-88700739D01*
X161160187Y-89010723D01*
X162009387Y-88994497D01*
X162718582Y-88700739D01*
X162878365Y-88381970D01*
X161544000Y-87047605D01*
X160209635Y-88381970D01*
X155650000Y-88381970D01*
X155650000Y-85629750D01*
X156249000Y-85629750D01*
X156249000Y-86320310D01*
X156345673Y-86553699D01*
X156524302Y-86732327D01*
X156757691Y-86829000D01*
X157448250Y-86829000D01*
X157607000Y-86670250D01*
X157607000Y-85471000D01*
X157861000Y-85471000D01*
X157861000Y-86670250D01*
X158019750Y-86829000D01*
X158710309Y-86829000D01*
X158943698Y-86732327D01*
X159122327Y-86553699D01*
X159151119Y-86484187D01*
X159401277Y-86484187D01*
X159417503Y-87333387D01*
X159711261Y-88042582D01*
X160030030Y-88202365D01*
X161364395Y-86868000D01*
X161723605Y-86868000D01*
X163057970Y-88202365D01*
X163376739Y-88042582D01*
X163686723Y-87251813D01*
X163670497Y-86402613D01*
X163376739Y-85693418D01*
X163057970Y-85533635D01*
X161723605Y-86868000D01*
X161364395Y-86868000D01*
X160030030Y-85533635D01*
X159711261Y-85693418D01*
X159401277Y-86484187D01*
X159151119Y-86484187D01*
X159219000Y-86320310D01*
X159219000Y-85629750D01*
X159060250Y-85471000D01*
X157861000Y-85471000D01*
X157607000Y-85471000D01*
X156407750Y-85471000D01*
X156249000Y-85629750D01*
X155650000Y-85629750D01*
X155650000Y-80264000D01*
X156219907Y-80264000D01*
X156332946Y-80832285D01*
X156654853Y-81314054D01*
X156984026Y-81534000D01*
X156654853Y-81753946D01*
X156332946Y-82235715D01*
X156219907Y-82804000D01*
X156332946Y-83372285D01*
X156654853Y-83854054D01*
X156698777Y-83883403D01*
X156524302Y-83955673D01*
X156345673Y-84134301D01*
X156249000Y-84367690D01*
X156249000Y-85058250D01*
X156407750Y-85217000D01*
X157607000Y-85217000D01*
X157607000Y-85197000D01*
X157861000Y-85197000D01*
X157861000Y-85217000D01*
X159060250Y-85217000D01*
X159219000Y-85058250D01*
X159219000Y-84367690D01*
X159122327Y-84134301D01*
X158943698Y-83955673D01*
X158769223Y-83883403D01*
X158813147Y-83854054D01*
X159135054Y-83372285D01*
X159248093Y-82804000D01*
X159135054Y-82235715D01*
X158813147Y-81753946D01*
X158483974Y-81534000D01*
X158813147Y-81314054D01*
X159135054Y-80832285D01*
X159248093Y-80264000D01*
X159135054Y-79695715D01*
X158813147Y-79213946D01*
X158736624Y-79162815D01*
X159408630Y-79162815D01*
X159732980Y-79947800D01*
X160333041Y-80548909D01*
X160870656Y-80772147D01*
X160336200Y-80992980D01*
X159735091Y-81593041D01*
X159409372Y-82377459D01*
X159408630Y-83226815D01*
X159732980Y-84011800D01*
X160333041Y-84612909D01*
X160860402Y-84831889D01*
X160369418Y-85035261D01*
X160209635Y-85354030D01*
X161544000Y-86688395D01*
X162878365Y-85354030D01*
X162718582Y-85035261D01*
X162213717Y-84837352D01*
X162751800Y-84615020D01*
X163352909Y-84014959D01*
X163462445Y-83751167D01*
X168990838Y-83751167D01*
X169132883Y-84094943D01*
X169166000Y-84128118D01*
X169166000Y-86051537D01*
X169133808Y-86083673D01*
X168991162Y-86427201D01*
X168990838Y-86799167D01*
X169132883Y-87142943D01*
X169395673Y-87406192D01*
X169739201Y-87548838D01*
X170111167Y-87549162D01*
X170454943Y-87407117D01*
X170718192Y-87144327D01*
X170860838Y-86800799D01*
X170861162Y-86428833D01*
X170719117Y-86085057D01*
X170686000Y-86051882D01*
X170686000Y-84128463D01*
X170718192Y-84096327D01*
X170860838Y-83752799D01*
X170861162Y-83380833D01*
X170797524Y-83226815D01*
X175918630Y-83226815D01*
X176242980Y-84011800D01*
X176843041Y-84612909D01*
X177380656Y-84836147D01*
X176846200Y-85056980D01*
X176245091Y-85657041D01*
X175919372Y-86441459D01*
X175918630Y-87290815D01*
X176242980Y-88075800D01*
X176843041Y-88676909D01*
X177627459Y-89002628D01*
X178476815Y-89003370D01*
X179261800Y-88679020D01*
X179862909Y-88078959D01*
X180188628Y-87294541D01*
X180189370Y-86445185D01*
X179865020Y-85660200D01*
X179264959Y-85059091D01*
X178727344Y-84835853D01*
X179261800Y-84615020D01*
X179862909Y-84014959D01*
X180188628Y-83230541D01*
X180189000Y-82804000D01*
X180349907Y-82804000D01*
X180462946Y-83372285D01*
X180784853Y-83854054D01*
X181114026Y-84074000D01*
X180784853Y-84293946D01*
X180462946Y-84775715D01*
X180349907Y-85344000D01*
X180462946Y-85912285D01*
X180784853Y-86394054D01*
X181266622Y-86715961D01*
X181834907Y-86829000D01*
X181893093Y-86829000D01*
X182461378Y-86715961D01*
X182943147Y-86394054D01*
X183265054Y-85912285D01*
X183378093Y-85344000D01*
X183265054Y-84775715D01*
X182943147Y-84293946D01*
X182613974Y-84074000D01*
X182943147Y-83854054D01*
X183265054Y-83372285D01*
X183378093Y-82804000D01*
X183265054Y-82235715D01*
X182943147Y-81753946D01*
X182899223Y-81724597D01*
X183073698Y-81652327D01*
X183252327Y-81473699D01*
X183349000Y-81240310D01*
X183349000Y-80549750D01*
X183190250Y-80391000D01*
X181991000Y-80391000D01*
X181991000Y-80411000D01*
X181737000Y-80411000D01*
X181737000Y-80391000D01*
X180537750Y-80391000D01*
X180379000Y-80549750D01*
X180379000Y-81240310D01*
X180475673Y-81473699D01*
X180654302Y-81652327D01*
X180828777Y-81724597D01*
X180784853Y-81753946D01*
X180462946Y-82235715D01*
X180349907Y-82804000D01*
X180189000Y-82804000D01*
X180189370Y-82381185D01*
X179865020Y-81596200D01*
X179264959Y-80995091D01*
X178737598Y-80776111D01*
X179228582Y-80572739D01*
X179388365Y-80253970D01*
X178054000Y-78919605D01*
X176719635Y-80253970D01*
X176879418Y-80572739D01*
X177384283Y-80770648D01*
X176846200Y-80992980D01*
X176245091Y-81593041D01*
X175919372Y-82377459D01*
X175918630Y-83226815D01*
X170797524Y-83226815D01*
X170719117Y-83037057D01*
X170456327Y-82773808D01*
X170112799Y-82631162D01*
X169740833Y-82630838D01*
X169397057Y-82772883D01*
X169133808Y-83035673D01*
X168991162Y-83379201D01*
X168990838Y-83751167D01*
X163462445Y-83751167D01*
X163678628Y-83230541D01*
X163679370Y-82381185D01*
X163355020Y-81596200D01*
X162754959Y-80995091D01*
X162217344Y-80771853D01*
X162751800Y-80551020D01*
X163352909Y-79950959D01*
X163678628Y-79166541D01*
X163679335Y-78356187D01*
X175911277Y-78356187D01*
X175927503Y-79205387D01*
X176221261Y-79914582D01*
X176540030Y-80074365D01*
X177874395Y-78740000D01*
X178233605Y-78740000D01*
X179567970Y-80074365D01*
X179886739Y-79914582D01*
X180132482Y-79287690D01*
X180379000Y-79287690D01*
X180379000Y-79978250D01*
X180537750Y-80137000D01*
X181737000Y-80137000D01*
X181737000Y-78937750D01*
X181991000Y-78937750D01*
X181991000Y-80137000D01*
X183190250Y-80137000D01*
X183349000Y-79978250D01*
X183349000Y-79287690D01*
X183252327Y-79054301D01*
X183073698Y-78875673D01*
X182840309Y-78779000D01*
X182149750Y-78779000D01*
X181991000Y-78937750D01*
X181737000Y-78937750D01*
X181578250Y-78779000D01*
X180887691Y-78779000D01*
X180654302Y-78875673D01*
X180475673Y-79054301D01*
X180379000Y-79287690D01*
X180132482Y-79287690D01*
X180196723Y-79123813D01*
X180180497Y-78274613D01*
X179886739Y-77565418D01*
X179567970Y-77405635D01*
X178233605Y-78740000D01*
X177874395Y-78740000D01*
X176540030Y-77405635D01*
X176221261Y-77565418D01*
X175911277Y-78356187D01*
X163679335Y-78356187D01*
X163679370Y-78317185D01*
X163355020Y-77532200D01*
X163049384Y-77226030D01*
X176719635Y-77226030D01*
X178054000Y-78560395D01*
X179388365Y-77226030D01*
X179228582Y-76907261D01*
X178437813Y-76597277D01*
X177588613Y-76613503D01*
X176879418Y-76907261D01*
X176719635Y-77226030D01*
X163049384Y-77226030D01*
X162754959Y-76931091D01*
X161970541Y-76605372D01*
X161121185Y-76604630D01*
X160336200Y-76928980D01*
X159735091Y-77529041D01*
X159409372Y-78313459D01*
X159408630Y-79162815D01*
X158736624Y-79162815D01*
X158331378Y-78892039D01*
X157763093Y-78779000D01*
X157704907Y-78779000D01*
X157136622Y-78892039D01*
X156654853Y-79213946D01*
X156332946Y-79695715D01*
X156219907Y-80264000D01*
X155650000Y-80264000D01*
X155650000Y-74157970D01*
X160971635Y-74157970D01*
X161131418Y-74476739D01*
X161922187Y-74786723D01*
X162771387Y-74770497D01*
X163480582Y-74476739D01*
X163640365Y-74157970D01*
X162306000Y-72823605D01*
X160971635Y-74157970D01*
X155650000Y-74157970D01*
X155650000Y-72260187D01*
X160163277Y-72260187D01*
X160179503Y-73109387D01*
X160473261Y-73818582D01*
X160792030Y-73978365D01*
X162126395Y-72644000D01*
X162485605Y-72644000D01*
X163819970Y-73978365D01*
X164138739Y-73818582D01*
X164433434Y-73066815D01*
X164742630Y-73066815D01*
X165066980Y-73851800D01*
X165667041Y-74452909D01*
X166451459Y-74778628D01*
X167300815Y-74779370D01*
X168085800Y-74455020D01*
X168686909Y-73854959D01*
X169012628Y-73070541D01*
X169012631Y-73066815D01*
X169314630Y-73066815D01*
X169638980Y-73851800D01*
X170239041Y-74452909D01*
X171023459Y-74778628D01*
X171872815Y-74779370D01*
X172657800Y-74455020D01*
X173258909Y-73854959D01*
X173584628Y-73070541D01*
X173584631Y-73066815D01*
X173886630Y-73066815D01*
X174210980Y-73851800D01*
X174811041Y-74452909D01*
X175595459Y-74778628D01*
X176444815Y-74779370D01*
X177229800Y-74455020D01*
X177830909Y-73854959D01*
X178156628Y-73070541D01*
X178157370Y-72221185D01*
X177833020Y-71436200D01*
X177232959Y-70835091D01*
X176448541Y-70509372D01*
X175599185Y-70508630D01*
X174814200Y-70832980D01*
X174213091Y-71433041D01*
X173887372Y-72217459D01*
X173886630Y-73066815D01*
X173584631Y-73066815D01*
X173585370Y-72221185D01*
X173261020Y-71436200D01*
X172660959Y-70835091D01*
X171876541Y-70509372D01*
X171027185Y-70508630D01*
X170242200Y-70832980D01*
X169641091Y-71433041D01*
X169315372Y-72217459D01*
X169314630Y-73066815D01*
X169012631Y-73066815D01*
X169013370Y-72221185D01*
X168689020Y-71436200D01*
X168088959Y-70835091D01*
X167304541Y-70509372D01*
X166455185Y-70508630D01*
X165670200Y-70832980D01*
X165069091Y-71433041D01*
X164743372Y-72217459D01*
X164742630Y-73066815D01*
X164433434Y-73066815D01*
X164448723Y-73027813D01*
X164432497Y-72178613D01*
X164138739Y-71469418D01*
X163819970Y-71309635D01*
X162485605Y-72644000D01*
X162126395Y-72644000D01*
X160792030Y-71309635D01*
X160473261Y-71469418D01*
X160163277Y-72260187D01*
X155650000Y-72260187D01*
X155650000Y-71162639D01*
X156219411Y-71733045D01*
X157035978Y-72072113D01*
X157920143Y-72072885D01*
X158737300Y-71735242D01*
X159343570Y-71130030D01*
X160971635Y-71130030D01*
X162306000Y-72464395D01*
X163640365Y-71130030D01*
X163480582Y-70811261D01*
X162689813Y-70501277D01*
X161840613Y-70517503D01*
X161131418Y-70811261D01*
X160971635Y-71130030D01*
X159343570Y-71130030D01*
X159363045Y-71110589D01*
X159702113Y-70294022D01*
X159702885Y-69409857D01*
X159583016Y-69119750D01*
X163869000Y-69119750D01*
X163869000Y-69810309D01*
X163965673Y-70043698D01*
X164144301Y-70222327D01*
X164377690Y-70319000D01*
X165068250Y-70319000D01*
X165227000Y-70160250D01*
X165227000Y-68961000D01*
X164027750Y-68961000D01*
X163869000Y-69119750D01*
X159583016Y-69119750D01*
X159365242Y-68592700D01*
X158740589Y-67966955D01*
X158477452Y-67857691D01*
X163869000Y-67857691D01*
X163869000Y-68548250D01*
X164027750Y-68707000D01*
X165227000Y-68707000D01*
X165227000Y-67507750D01*
X165481000Y-67507750D01*
X165481000Y-68707000D01*
X165501000Y-68707000D01*
X165501000Y-68961000D01*
X165481000Y-68961000D01*
X165481000Y-70160250D01*
X165639750Y-70319000D01*
X166330310Y-70319000D01*
X166563699Y-70222327D01*
X166742327Y-70043698D01*
X166814597Y-69869223D01*
X166843946Y-69913147D01*
X167325715Y-70235054D01*
X167894000Y-70348093D01*
X168462285Y-70235054D01*
X168944054Y-69913147D01*
X169164000Y-69583974D01*
X169383946Y-69913147D01*
X169865715Y-70235054D01*
X170434000Y-70348093D01*
X171002285Y-70235054D01*
X171484054Y-69913147D01*
X171704000Y-69583974D01*
X171923946Y-69913147D01*
X172405715Y-70235054D01*
X172974000Y-70348093D01*
X173265334Y-70290143D01*
X179387115Y-70290143D01*
X179724758Y-71107300D01*
X180349411Y-71733045D01*
X181165978Y-72072113D01*
X182050143Y-72072885D01*
X182867300Y-71735242D01*
X183493045Y-71110589D01*
X183832113Y-70294022D01*
X183832885Y-69409857D01*
X183495242Y-68592700D01*
X182870589Y-67966955D01*
X182054022Y-67627887D01*
X181169857Y-67627115D01*
X180352700Y-67964758D01*
X179726955Y-68589411D01*
X179387887Y-69405978D01*
X179387115Y-70290143D01*
X173265334Y-70290143D01*
X173542285Y-70235054D01*
X174024054Y-69913147D01*
X174345961Y-69431378D01*
X174459000Y-68863093D01*
X174459000Y-68804907D01*
X174345961Y-68236622D01*
X174024054Y-67754853D01*
X173542285Y-67432946D01*
X172974000Y-67319907D01*
X172405715Y-67432946D01*
X171923946Y-67754853D01*
X171704000Y-68084026D01*
X171484054Y-67754853D01*
X171002285Y-67432946D01*
X170434000Y-67319907D01*
X169865715Y-67432946D01*
X169383946Y-67754853D01*
X169164000Y-68084026D01*
X168944054Y-67754853D01*
X168462285Y-67432946D01*
X167894000Y-67319907D01*
X167325715Y-67432946D01*
X166843946Y-67754853D01*
X166814597Y-67798777D01*
X166742327Y-67624302D01*
X166563699Y-67445673D01*
X166330310Y-67349000D01*
X165639750Y-67349000D01*
X165481000Y-67507750D01*
X165227000Y-67507750D01*
X165068250Y-67349000D01*
X164377690Y-67349000D01*
X164144301Y-67445673D01*
X163965673Y-67624302D01*
X163869000Y-67857691D01*
X158477452Y-67857691D01*
X157924022Y-67627887D01*
X157039857Y-67627115D01*
X156222700Y-67964758D01*
X155650000Y-68536459D01*
X155650000Y-66750000D01*
X183948000Y-66750000D01*
X183948000Y-113590000D01*
M02*
