G04 #@! TF.FileFunction,Legend,Top*
%FSLAX46Y46*%
G04 Gerber Fmt 4.6, Leading zero omitted, Abs format (unit mm)*
G04 Created by KiCad (PCBNEW 4.0.6-e0-6349~53~ubuntu16.04.1) date Tue Apr 25 15:56:05 2017*
%MOMM*%
%LPD*%
G01*
G04 APERTURE LIST*
%ADD10C,0.100000*%
%ADD11C,0.200000*%
%ADD12C,0.250000*%
%ADD13C,0.120000*%
%ADD14C,0.150000*%
G04 APERTURE END LIST*
D10*
D11*
X166370000Y-110236000D02*
G75*
G03X166370000Y-110236000I-254000J0D01*
G01*
X170434000Y-110236000D02*
G75*
G03X170434000Y-110236000I-254000J0D01*
G01*
X172212000Y-92964000D02*
X171704000Y-92456000D01*
X171196000Y-92964000D02*
X172212000Y-92964000D01*
X171704000Y-92456000D02*
X171196000Y-92964000D01*
X171704000Y-92964000D02*
X171704000Y-92456000D01*
X171196000Y-93472000D02*
X171704000Y-92964000D01*
X168148000Y-91440000D02*
X171196000Y-93472000D01*
D12*
X156560000Y-90209714D02*
X157321905Y-90495429D01*
X156560000Y-90781143D01*
X158274286Y-89876381D02*
X157798095Y-89876381D01*
X157750476Y-90352571D01*
X157798095Y-90304952D01*
X157893333Y-90257333D01*
X158131429Y-90257333D01*
X158226667Y-90304952D01*
X158274286Y-90352571D01*
X158321905Y-90447810D01*
X158321905Y-90685905D01*
X158274286Y-90781143D01*
X158226667Y-90828762D01*
X158131429Y-90876381D01*
X157893333Y-90876381D01*
X157798095Y-90828762D01*
X157750476Y-90781143D01*
X158607619Y-89876381D02*
X158940952Y-90876381D01*
X159274286Y-89876381D01*
X159607619Y-90781143D02*
X159655238Y-90828762D01*
X159607619Y-90876381D01*
X159560000Y-90828762D01*
X159607619Y-90781143D01*
X159607619Y-90876381D01*
X159607619Y-90257333D02*
X159655238Y-90304952D01*
X159607619Y-90352571D01*
X159560000Y-90304952D01*
X159607619Y-90257333D01*
X159607619Y-90352571D01*
X161274286Y-90828762D02*
X161179048Y-90876381D01*
X160988571Y-90876381D01*
X160893333Y-90828762D01*
X160845714Y-90781143D01*
X160798095Y-90685905D01*
X160798095Y-90400190D01*
X160845714Y-90304952D01*
X160893333Y-90257333D01*
X160988571Y-90209714D01*
X161179048Y-90209714D01*
X161274286Y-90257333D01*
X162131429Y-90209714D02*
X162131429Y-90876381D01*
X161702857Y-90209714D02*
X161702857Y-90733524D01*
X161750476Y-90828762D01*
X161845714Y-90876381D01*
X161988572Y-90876381D01*
X162083810Y-90828762D01*
X162131429Y-90781143D01*
X162464762Y-90209714D02*
X162845714Y-90209714D01*
X162607619Y-89876381D02*
X162607619Y-90733524D01*
X162655238Y-90828762D01*
X162750476Y-90876381D01*
X162845714Y-90876381D01*
X163940953Y-90209714D02*
X163940953Y-91066857D01*
X163893334Y-91162095D01*
X163798096Y-91209714D01*
X163750477Y-91209714D01*
X163940953Y-89876381D02*
X163893334Y-89924000D01*
X163940953Y-89971619D01*
X163988572Y-89924000D01*
X163940953Y-89876381D01*
X163940953Y-89971619D01*
X164845715Y-90209714D02*
X164845715Y-90876381D01*
X164417143Y-90209714D02*
X164417143Y-90733524D01*
X164464762Y-90828762D01*
X164560000Y-90876381D01*
X164702858Y-90876381D01*
X164798096Y-90828762D01*
X164845715Y-90781143D01*
X165321905Y-90876381D02*
X165321905Y-90209714D01*
X165321905Y-90304952D02*
X165369524Y-90257333D01*
X165464762Y-90209714D01*
X165607620Y-90209714D01*
X165702858Y-90257333D01*
X165750477Y-90352571D01*
X165750477Y-90876381D01*
X165750477Y-90352571D02*
X165798096Y-90257333D01*
X165893334Y-90209714D01*
X166036191Y-90209714D01*
X166131429Y-90257333D01*
X166179048Y-90352571D01*
X166179048Y-90876381D01*
X166655238Y-90209714D02*
X166655238Y-91209714D01*
X166655238Y-90257333D02*
X166750476Y-90209714D01*
X166940953Y-90209714D01*
X167036191Y-90257333D01*
X167083810Y-90304952D01*
X167131429Y-90400190D01*
X167131429Y-90685905D01*
X167083810Y-90781143D01*
X167036191Y-90828762D01*
X166940953Y-90876381D01*
X166750476Y-90876381D01*
X166655238Y-90828762D01*
X167940953Y-90828762D02*
X167845715Y-90876381D01*
X167655238Y-90876381D01*
X167560000Y-90828762D01*
X167512381Y-90733524D01*
X167512381Y-90352571D01*
X167560000Y-90257333D01*
X167655238Y-90209714D01*
X167845715Y-90209714D01*
X167940953Y-90257333D01*
X167988572Y-90352571D01*
X167988572Y-90447810D01*
X167512381Y-90543048D01*
X168417143Y-90876381D02*
X168417143Y-90209714D01*
X168417143Y-90400190D02*
X168464762Y-90304952D01*
X168512381Y-90257333D01*
X168607619Y-90209714D01*
X168702858Y-90209714D01*
D13*
X179450863Y-95538600D02*
G75*
G03X174656564Y-95540000I-2396863J-981400D01*
G01*
X179450863Y-97501400D02*
G75*
G02X174656564Y-97500000I-2396863J981400D01*
G01*
X179450863Y-97501400D02*
G75*
G03X179451436Y-95540000I-2396863J981400D01*
G01*
X177054000Y-93970000D02*
X177054000Y-99070000D01*
X177094000Y-93970000D02*
X177094000Y-95540000D01*
X177094000Y-97500000D02*
X177094000Y-99070000D01*
X177134000Y-93971000D02*
X177134000Y-95540000D01*
X177134000Y-97500000D02*
X177134000Y-99069000D01*
X177174000Y-93972000D02*
X177174000Y-95540000D01*
X177174000Y-97500000D02*
X177174000Y-99068000D01*
X177214000Y-93974000D02*
X177214000Y-95540000D01*
X177214000Y-97500000D02*
X177214000Y-99066000D01*
X177254000Y-93977000D02*
X177254000Y-95540000D01*
X177254000Y-97500000D02*
X177254000Y-99063000D01*
X177294000Y-93981000D02*
X177294000Y-95540000D01*
X177294000Y-97500000D02*
X177294000Y-99059000D01*
X177334000Y-93985000D02*
X177334000Y-95540000D01*
X177334000Y-97500000D02*
X177334000Y-99055000D01*
X177374000Y-93989000D02*
X177374000Y-95540000D01*
X177374000Y-97500000D02*
X177374000Y-99051000D01*
X177414000Y-93995000D02*
X177414000Y-95540000D01*
X177414000Y-97500000D02*
X177414000Y-99045000D01*
X177454000Y-94001000D02*
X177454000Y-95540000D01*
X177454000Y-97500000D02*
X177454000Y-99039000D01*
X177494000Y-94007000D02*
X177494000Y-95540000D01*
X177494000Y-97500000D02*
X177494000Y-99033000D01*
X177534000Y-94014000D02*
X177534000Y-95540000D01*
X177534000Y-97500000D02*
X177534000Y-99026000D01*
X177574000Y-94022000D02*
X177574000Y-95540000D01*
X177574000Y-97500000D02*
X177574000Y-99018000D01*
X177614000Y-94031000D02*
X177614000Y-95540000D01*
X177614000Y-97500000D02*
X177614000Y-99009000D01*
X177654000Y-94040000D02*
X177654000Y-95540000D01*
X177654000Y-97500000D02*
X177654000Y-99000000D01*
X177694000Y-94050000D02*
X177694000Y-95540000D01*
X177694000Y-97500000D02*
X177694000Y-98990000D01*
X177734000Y-94060000D02*
X177734000Y-95540000D01*
X177734000Y-97500000D02*
X177734000Y-98980000D01*
X177775000Y-94072000D02*
X177775000Y-95540000D01*
X177775000Y-97500000D02*
X177775000Y-98968000D01*
X177815000Y-94084000D02*
X177815000Y-95540000D01*
X177815000Y-97500000D02*
X177815000Y-98956000D01*
X177855000Y-94096000D02*
X177855000Y-95540000D01*
X177855000Y-97500000D02*
X177855000Y-98944000D01*
X177895000Y-94110000D02*
X177895000Y-95540000D01*
X177895000Y-97500000D02*
X177895000Y-98930000D01*
X177935000Y-94124000D02*
X177935000Y-95540000D01*
X177935000Y-97500000D02*
X177935000Y-98916000D01*
X177975000Y-94138000D02*
X177975000Y-95540000D01*
X177975000Y-97500000D02*
X177975000Y-98902000D01*
X178015000Y-94154000D02*
X178015000Y-95540000D01*
X178015000Y-97500000D02*
X178015000Y-98886000D01*
X178055000Y-94170000D02*
X178055000Y-95540000D01*
X178055000Y-97500000D02*
X178055000Y-98870000D01*
X178095000Y-94187000D02*
X178095000Y-95540000D01*
X178095000Y-97500000D02*
X178095000Y-98853000D01*
X178135000Y-94205000D02*
X178135000Y-95540000D01*
X178135000Y-97500000D02*
X178135000Y-98835000D01*
X178175000Y-94224000D02*
X178175000Y-95540000D01*
X178175000Y-97500000D02*
X178175000Y-98816000D01*
X178215000Y-94244000D02*
X178215000Y-95540000D01*
X178215000Y-97500000D02*
X178215000Y-98796000D01*
X178255000Y-94264000D02*
X178255000Y-95540000D01*
X178255000Y-97500000D02*
X178255000Y-98776000D01*
X178295000Y-94286000D02*
X178295000Y-95540000D01*
X178295000Y-97500000D02*
X178295000Y-98754000D01*
X178335000Y-94308000D02*
X178335000Y-95540000D01*
X178335000Y-97500000D02*
X178335000Y-98732000D01*
X178375000Y-94331000D02*
X178375000Y-95540000D01*
X178375000Y-97500000D02*
X178375000Y-98709000D01*
X178415000Y-94355000D02*
X178415000Y-95540000D01*
X178415000Y-97500000D02*
X178415000Y-98685000D01*
X178455000Y-94380000D02*
X178455000Y-95540000D01*
X178455000Y-97500000D02*
X178455000Y-98660000D01*
X178495000Y-94407000D02*
X178495000Y-95540000D01*
X178495000Y-97500000D02*
X178495000Y-98633000D01*
X178535000Y-94434000D02*
X178535000Y-95540000D01*
X178535000Y-97500000D02*
X178535000Y-98606000D01*
X178575000Y-94462000D02*
X178575000Y-95540000D01*
X178575000Y-97500000D02*
X178575000Y-98578000D01*
X178615000Y-94492000D02*
X178615000Y-95540000D01*
X178615000Y-97500000D02*
X178615000Y-98548000D01*
X178655000Y-94523000D02*
X178655000Y-95540000D01*
X178655000Y-97500000D02*
X178655000Y-98517000D01*
X178695000Y-94555000D02*
X178695000Y-95540000D01*
X178695000Y-97500000D02*
X178695000Y-98485000D01*
X178735000Y-94588000D02*
X178735000Y-95540000D01*
X178735000Y-97500000D02*
X178735000Y-98452000D01*
X178775000Y-94623000D02*
X178775000Y-95540000D01*
X178775000Y-97500000D02*
X178775000Y-98417000D01*
X178815000Y-94659000D02*
X178815000Y-95540000D01*
X178815000Y-97500000D02*
X178815000Y-98381000D01*
X178855000Y-94697000D02*
X178855000Y-95540000D01*
X178855000Y-97500000D02*
X178855000Y-98343000D01*
X178895000Y-94737000D02*
X178895000Y-95540000D01*
X178895000Y-97500000D02*
X178895000Y-98303000D01*
X178935000Y-94778000D02*
X178935000Y-95540000D01*
X178935000Y-97500000D02*
X178935000Y-98262000D01*
X178975000Y-94821000D02*
X178975000Y-95540000D01*
X178975000Y-97500000D02*
X178975000Y-98219000D01*
X179015000Y-94866000D02*
X179015000Y-95540000D01*
X179015000Y-97500000D02*
X179015000Y-98174000D01*
X179055000Y-94914000D02*
X179055000Y-98126000D01*
X179095000Y-94964000D02*
X179095000Y-98076000D01*
X179135000Y-95016000D02*
X179135000Y-98024000D01*
X179175000Y-95072000D02*
X179175000Y-97968000D01*
X179215000Y-95130000D02*
X179215000Y-97910000D01*
X179255000Y-95193000D02*
X179255000Y-97847000D01*
X179295000Y-95259000D02*
X179295000Y-97781000D01*
X179335000Y-95331000D02*
X179335000Y-97709000D01*
X179375000Y-95408000D02*
X179375000Y-97632000D01*
X179415000Y-95492000D02*
X179415000Y-97548000D01*
X179455000Y-95586000D02*
X179455000Y-97454000D01*
X179495000Y-95691000D02*
X179495000Y-97349000D01*
X179535000Y-95813000D02*
X179535000Y-97227000D01*
X179575000Y-95961000D02*
X179575000Y-97079000D01*
X179615000Y-96166000D02*
X179615000Y-96874000D01*
X173854000Y-96520000D02*
X175054000Y-96520000D01*
X174454000Y-95870000D02*
X174454000Y-97170000D01*
X177784000Y-89960000D02*
X175784000Y-89960000D01*
X175784000Y-92920000D02*
X177784000Y-92920000D01*
X171180000Y-77260000D02*
X169180000Y-77260000D01*
X169180000Y-80220000D02*
X171180000Y-80220000D01*
X175014000Y-107530000D02*
X176014000Y-107530000D01*
X176014000Y-105830000D02*
X175014000Y-105830000D01*
X164060000Y-105830000D02*
X163060000Y-105830000D01*
X163060000Y-107530000D02*
X164060000Y-107530000D01*
X180534000Y-81534000D02*
X180534000Y-86674000D01*
X180534000Y-86674000D02*
X183194000Y-86674000D01*
X183194000Y-86674000D02*
X183194000Y-81534000D01*
X183194000Y-81534000D02*
X180534000Y-81534000D01*
X180534000Y-80264000D02*
X180534000Y-78934000D01*
X180534000Y-78934000D02*
X181864000Y-78934000D01*
X166624000Y-70164000D02*
X174304000Y-70164000D01*
X174304000Y-70164000D02*
X174304000Y-67504000D01*
X174304000Y-67504000D02*
X166624000Y-67504000D01*
X166624000Y-67504000D02*
X166624000Y-70164000D01*
X165354000Y-70164000D02*
X164024000Y-70164000D01*
X164024000Y-70164000D02*
X164024000Y-68834000D01*
X159064000Y-84074000D02*
X159064000Y-78934000D01*
X159064000Y-78934000D02*
X156404000Y-78934000D01*
X156404000Y-78934000D02*
X156404000Y-84074000D01*
X156404000Y-84074000D02*
X159064000Y-84074000D01*
X159064000Y-85344000D02*
X159064000Y-86674000D01*
X159064000Y-86674000D02*
X157734000Y-86674000D01*
X173034000Y-96520000D02*
X173034000Y-93920000D01*
X173034000Y-93920000D02*
X170374000Y-93920000D01*
X170374000Y-93920000D02*
X170374000Y-96520000D01*
X170374000Y-96520000D02*
X173034000Y-96520000D01*
X173034000Y-97790000D02*
X173034000Y-99120000D01*
X173034000Y-99120000D02*
X171704000Y-99120000D01*
X175650000Y-103790000D02*
X175650000Y-102590000D01*
X177410000Y-102590000D02*
X177410000Y-103790000D01*
X161680000Y-103790000D02*
X161680000Y-102590000D01*
X163440000Y-102590000D02*
X163440000Y-103790000D01*
X173336000Y-83180000D02*
X172076000Y-83180000D01*
X166516000Y-83180000D02*
X167776000Y-83180000D01*
X173336000Y-86940000D02*
X173336000Y-83180000D01*
X166516000Y-89190000D02*
X166516000Y-83180000D01*
D14*
X173162000Y-109415000D02*
X173162000Y-107315000D01*
X169912000Y-110190000D02*
X169912000Y-107315000D01*
X169178000Y-109415000D02*
X169178000Y-107315000D01*
X165928000Y-110190000D02*
X165928000Y-107315000D01*
X181300381Y-98575619D02*
X181300381Y-99147048D01*
X181300381Y-98861334D02*
X180300381Y-98861334D01*
X180443238Y-98956572D01*
X180538476Y-99051810D01*
X180586095Y-99147048D01*
X180300381Y-97956572D02*
X180300381Y-97861333D01*
X180348000Y-97766095D01*
X180395619Y-97718476D01*
X180490857Y-97670857D01*
X180681333Y-97623238D01*
X180919429Y-97623238D01*
X181109905Y-97670857D01*
X181205143Y-97718476D01*
X181252762Y-97766095D01*
X181300381Y-97861333D01*
X181300381Y-97956572D01*
X181252762Y-98051810D01*
X181205143Y-98099429D01*
X181109905Y-98147048D01*
X180919429Y-98194667D01*
X180681333Y-98194667D01*
X180490857Y-98147048D01*
X180395619Y-98099429D01*
X180348000Y-98051810D01*
X180300381Y-97956572D01*
X180300381Y-97004191D02*
X180300381Y-96908952D01*
X180348000Y-96813714D01*
X180395619Y-96766095D01*
X180490857Y-96718476D01*
X180681333Y-96670857D01*
X180919429Y-96670857D01*
X181109905Y-96718476D01*
X181205143Y-96766095D01*
X181252762Y-96813714D01*
X181300381Y-96908952D01*
X181300381Y-97004191D01*
X181252762Y-97099429D01*
X181205143Y-97147048D01*
X181109905Y-97194667D01*
X180919429Y-97242286D01*
X180681333Y-97242286D01*
X180490857Y-97194667D01*
X180395619Y-97147048D01*
X180348000Y-97099429D01*
X180300381Y-97004191D01*
X180633714Y-95813714D02*
X181300381Y-95813714D01*
X180633714Y-96242286D02*
X181157524Y-96242286D01*
X181252762Y-96194667D01*
X181300381Y-96099429D01*
X181300381Y-95956571D01*
X181252762Y-95861333D01*
X181205143Y-95813714D01*
X180776571Y-95004190D02*
X180776571Y-95337524D01*
X181300381Y-95337524D02*
X180300381Y-95337524D01*
X180300381Y-94861333D01*
X175712572Y-89860381D02*
X175141143Y-89860381D01*
X175426857Y-89860381D02*
X175426857Y-88860381D01*
X175331619Y-89003238D01*
X175236381Y-89098476D01*
X175141143Y-89146095D01*
X176331619Y-88860381D02*
X176426858Y-88860381D01*
X176522096Y-88908000D01*
X176569715Y-88955619D01*
X176617334Y-89050857D01*
X176664953Y-89241333D01*
X176664953Y-89479429D01*
X176617334Y-89669905D01*
X176569715Y-89765143D01*
X176522096Y-89812762D01*
X176426858Y-89860381D01*
X176331619Y-89860381D01*
X176236381Y-89812762D01*
X176188762Y-89765143D01*
X176141143Y-89669905D01*
X176093524Y-89479429D01*
X176093524Y-89241333D01*
X176141143Y-89050857D01*
X176188762Y-88955619D01*
X176236381Y-88908000D01*
X176331619Y-88860381D01*
X177522096Y-89193714D02*
X177522096Y-89860381D01*
X177093524Y-89193714D02*
X177093524Y-89717524D01*
X177141143Y-89812762D01*
X177236381Y-89860381D01*
X177379239Y-89860381D01*
X177474477Y-89812762D01*
X177522096Y-89765143D01*
X178331620Y-89336571D02*
X177998286Y-89336571D01*
X177998286Y-89860381D02*
X177998286Y-88860381D01*
X178474477Y-88860381D01*
X168600572Y-76652381D02*
X168029143Y-76652381D01*
X168314857Y-76652381D02*
X168314857Y-75652381D01*
X168219619Y-75795238D01*
X168124381Y-75890476D01*
X168029143Y-75938095D01*
X169219619Y-75652381D02*
X169314858Y-75652381D01*
X169410096Y-75700000D01*
X169457715Y-75747619D01*
X169505334Y-75842857D01*
X169552953Y-76033333D01*
X169552953Y-76271429D01*
X169505334Y-76461905D01*
X169457715Y-76557143D01*
X169410096Y-76604762D01*
X169314858Y-76652381D01*
X169219619Y-76652381D01*
X169124381Y-76604762D01*
X169076762Y-76557143D01*
X169029143Y-76461905D01*
X168981524Y-76271429D01*
X168981524Y-76033333D01*
X169029143Y-75842857D01*
X169076762Y-75747619D01*
X169124381Y-75700000D01*
X169219619Y-75652381D01*
X170410096Y-75985714D02*
X170410096Y-76652381D01*
X169981524Y-75985714D02*
X169981524Y-76509524D01*
X170029143Y-76604762D01*
X170124381Y-76652381D01*
X170267239Y-76652381D01*
X170362477Y-76604762D01*
X170410096Y-76557143D01*
X171219620Y-76128571D02*
X170886286Y-76128571D01*
X170886286Y-76652381D02*
X170886286Y-75652381D01*
X171362477Y-75652381D01*
X177760381Y-108576857D02*
X177760381Y-108481618D01*
X177808000Y-108386380D01*
X177855619Y-108338761D01*
X177950857Y-108291142D01*
X178141333Y-108243523D01*
X178379429Y-108243523D01*
X178569905Y-108291142D01*
X178665143Y-108338761D01*
X178712762Y-108386380D01*
X178760381Y-108481618D01*
X178760381Y-108576857D01*
X178712762Y-108672095D01*
X178665143Y-108719714D01*
X178569905Y-108767333D01*
X178379429Y-108814952D01*
X178141333Y-108814952D01*
X177950857Y-108767333D01*
X177855619Y-108719714D01*
X177808000Y-108672095D01*
X177760381Y-108576857D01*
X178665143Y-107814952D02*
X178712762Y-107767333D01*
X178760381Y-107814952D01*
X178712762Y-107862571D01*
X178665143Y-107814952D01*
X178760381Y-107814952D01*
X178760381Y-106814952D02*
X178760381Y-107386381D01*
X178760381Y-107100667D02*
X177760381Y-107100667D01*
X177903238Y-107195905D01*
X177998476Y-107291143D01*
X178046095Y-107386381D01*
X178093714Y-105957809D02*
X178760381Y-105957809D01*
X178093714Y-106386381D02*
X178617524Y-106386381D01*
X178712762Y-106338762D01*
X178760381Y-106243524D01*
X178760381Y-106100666D01*
X178712762Y-106005428D01*
X178665143Y-105957809D01*
X178236571Y-105148285D02*
X178236571Y-105481619D01*
X178760381Y-105481619D02*
X177760381Y-105481619D01*
X177760381Y-105005428D01*
X160488381Y-109338857D02*
X160488381Y-109243618D01*
X160536000Y-109148380D01*
X160583619Y-109100761D01*
X160678857Y-109053142D01*
X160869333Y-109005523D01*
X161107429Y-109005523D01*
X161297905Y-109053142D01*
X161393143Y-109100761D01*
X161440762Y-109148380D01*
X161488381Y-109243618D01*
X161488381Y-109338857D01*
X161440762Y-109434095D01*
X161393143Y-109481714D01*
X161297905Y-109529333D01*
X161107429Y-109576952D01*
X160869333Y-109576952D01*
X160678857Y-109529333D01*
X160583619Y-109481714D01*
X160536000Y-109434095D01*
X160488381Y-109338857D01*
X161393143Y-108576952D02*
X161440762Y-108529333D01*
X161488381Y-108576952D01*
X161440762Y-108624571D01*
X161393143Y-108576952D01*
X161488381Y-108576952D01*
X161488381Y-107576952D02*
X161488381Y-108148381D01*
X161488381Y-107862667D02*
X160488381Y-107862667D01*
X160631238Y-107957905D01*
X160726476Y-108053143D01*
X160774095Y-108148381D01*
X160821714Y-106719809D02*
X161488381Y-106719809D01*
X160821714Y-107148381D02*
X161345524Y-107148381D01*
X161440762Y-107100762D01*
X161488381Y-107005524D01*
X161488381Y-106862666D01*
X161440762Y-106767428D01*
X161393143Y-106719809D01*
X160964571Y-105910285D02*
X160964571Y-106243619D01*
X161488381Y-106243619D02*
X160488381Y-106243619D01*
X160488381Y-105767428D01*
X178760381Y-103790666D02*
X178760381Y-104362095D01*
X178760381Y-104076381D02*
X177760381Y-104076381D01*
X177903238Y-104171619D01*
X177998476Y-104266857D01*
X178046095Y-104362095D01*
X177760381Y-103171619D02*
X177760381Y-103076380D01*
X177808000Y-102981142D01*
X177855619Y-102933523D01*
X177950857Y-102885904D01*
X178141333Y-102838285D01*
X178379429Y-102838285D01*
X178569905Y-102885904D01*
X178665143Y-102933523D01*
X178712762Y-102981142D01*
X178760381Y-103076380D01*
X178760381Y-103171619D01*
X178712762Y-103266857D01*
X178665143Y-103314476D01*
X178569905Y-103362095D01*
X178379429Y-103409714D01*
X178141333Y-103409714D01*
X177950857Y-103362095D01*
X177855619Y-103314476D01*
X177808000Y-103266857D01*
X177760381Y-103171619D01*
X177760381Y-102219238D02*
X177760381Y-102123999D01*
X177808000Y-102028761D01*
X177855619Y-101981142D01*
X177950857Y-101933523D01*
X178141333Y-101885904D01*
X178379429Y-101885904D01*
X178569905Y-101933523D01*
X178665143Y-101981142D01*
X178712762Y-102028761D01*
X178760381Y-102123999D01*
X178760381Y-102219238D01*
X178712762Y-102314476D01*
X178665143Y-102362095D01*
X178569905Y-102409714D01*
X178379429Y-102457333D01*
X178141333Y-102457333D01*
X177950857Y-102409714D01*
X177855619Y-102362095D01*
X177808000Y-102314476D01*
X177760381Y-102219238D01*
X161262381Y-103856666D02*
X161262381Y-104428095D01*
X161262381Y-104142381D02*
X160262381Y-104142381D01*
X160405238Y-104237619D01*
X160500476Y-104332857D01*
X160548095Y-104428095D01*
X160262381Y-103237619D02*
X160262381Y-103142380D01*
X160310000Y-103047142D01*
X160357619Y-102999523D01*
X160452857Y-102951904D01*
X160643333Y-102904285D01*
X160881429Y-102904285D01*
X161071905Y-102951904D01*
X161167143Y-102999523D01*
X161214762Y-103047142D01*
X161262381Y-103142380D01*
X161262381Y-103237619D01*
X161214762Y-103332857D01*
X161167143Y-103380476D01*
X161071905Y-103428095D01*
X160881429Y-103475714D01*
X160643333Y-103475714D01*
X160452857Y-103428095D01*
X160357619Y-103380476D01*
X160310000Y-103332857D01*
X160262381Y-103237619D01*
X160262381Y-102285238D02*
X160262381Y-102189999D01*
X160310000Y-102094761D01*
X160357619Y-102047142D01*
X160452857Y-101999523D01*
X160643333Y-101951904D01*
X160881429Y-101951904D01*
X161071905Y-101999523D01*
X161167143Y-102047142D01*
X161214762Y-102094761D01*
X161262381Y-102189999D01*
X161262381Y-102285238D01*
X161214762Y-102380476D01*
X161167143Y-102428095D01*
X161071905Y-102475714D01*
X160881429Y-102523333D01*
X160643333Y-102523333D01*
X160452857Y-102475714D01*
X160357619Y-102428095D01*
X160310000Y-102380476D01*
X160262381Y-102285238D01*
X164878381Y-86328095D02*
X165687905Y-86328095D01*
X165783143Y-86280476D01*
X165830762Y-86232857D01*
X165878381Y-86137619D01*
X165878381Y-85947142D01*
X165830762Y-85851904D01*
X165783143Y-85804285D01*
X165687905Y-85756666D01*
X164878381Y-85756666D01*
X165878381Y-84756666D02*
X165878381Y-85328095D01*
X165878381Y-85042381D02*
X164878381Y-85042381D01*
X165021238Y-85137619D01*
X165116476Y-85232857D01*
X165164095Y-85328095D01*
X165878381Y-83804285D02*
X165878381Y-84375714D01*
X165878381Y-84090000D02*
X164878381Y-84090000D01*
X165021238Y-84185238D01*
X165116476Y-84280476D01*
X165164095Y-84375714D01*
M02*
