M48
;DRILL file {KiCad 4.0.6-e0-6349~53~ubuntu16.04.1} date Fri Apr 14 17:01:01 2017
;FORMAT={-:-/ absolute / inch / decimal}
FMAT,2
INCH,TZ
T1C0.016
T2C0.031
T3C0.035
T4C0.039
T5C0.055
T6C0.079
%
G90
G05
M72
T1
X6.3844Y-4.25
X6.51Y-4.25
X6.57Y-4.16
X6.5994Y-3.4006
X6.7198Y-4.1628
X6.7591Y-3.0091
X6.82Y-4.18
X6.84Y-3.68
X6.84Y-4.25
X6.96Y-3.72
X6.9649Y-4.25
X7.05Y-3.6
T2
X6.9313Y-3.8
X7.01Y-3.8
T3
X6.5Y-4.
X6.55Y-4.1
X6.6Y-4.
X6.65Y-4.1
X6.7Y-4.
X6.75Y-4.1
X6.8Y-4.
X6.85Y-4.1
T4
X6.21Y-3.16
X6.21Y-3.26
X6.21Y-3.36
X6.51Y-2.71
X6.61Y-2.71
X6.71Y-2.71
X6.76Y-3.75
X6.76Y-3.85
X6.81Y-2.71
X7.16Y-3.16
X7.16Y-3.26
X7.16Y-3.36
T5
X6.35Y-3.66
X6.35Y-3.7978
X6.5469Y-3.66
X6.5469Y-3.7978
T6
X6.36Y-3.1
X6.36Y-3.26
X6.36Y-3.42
X6.39Y-2.86
X6.57Y-2.86
X6.75Y-2.86
X6.93Y-2.86
X7.01Y-3.1
X7.01Y-3.26
X7.01Y-3.42
T0
M30
